%TF.GenerationSoftware,KiCad,Pcbnew,5.1.7-a382d34a88~89~ubuntu20.04.1*%
%TF.CreationDate,2021-11-17T19:13:42+01:00*%
%TF.ProjectId,miniWhip,6d696e69-5768-4697-902e-6b696361645f,rev?*%
%TF.SameCoordinates,Original*%
%TF.FileFunction,Legend,Bot*%
%TF.FilePolarity,Positive*%
%FSLAX46Y46*%
G04 Gerber Fmt 4.6, Leading zero omitted, Abs format (unit mm)*
G04 Created by KiCad (PCBNEW 5.1.7-a382d34a88~89~ubuntu20.04.1) date 2021-11-17 19:13:42*
%MOMM*%
%LPD*%
G01*
G04 APERTURE LIST*
%ADD10C,0.300000*%
G04 APERTURE END LIST*
D10*
X54942428Y-48002571D02*
X55656714Y-48002571D01*
X55656714Y-46502571D01*
X53942428Y-47216857D02*
X54442428Y-47216857D01*
X54442428Y-48002571D02*
X54442428Y-46502571D01*
X53728142Y-46502571D01*
X53156714Y-47431142D02*
X52013857Y-47431142D01*
X51299571Y-48002571D02*
X51299571Y-46502571D01*
X51299571Y-47216857D02*
X50442428Y-47216857D01*
X50442428Y-48002571D02*
X50442428Y-46502571D01*
X49228142Y-47216857D02*
X49728142Y-47216857D01*
X49728142Y-48002571D02*
X49728142Y-46502571D01*
X49013857Y-46502571D01*
X46799571Y-47216857D02*
X46585285Y-47288285D01*
X46513857Y-47359714D01*
X46442428Y-47502571D01*
X46442428Y-47716857D01*
X46513857Y-47859714D01*
X46585285Y-47931142D01*
X46728142Y-48002571D01*
X47299571Y-48002571D01*
X47299571Y-46502571D01*
X46799571Y-46502571D01*
X46656714Y-46574000D01*
X46585285Y-46645428D01*
X46513857Y-46788285D01*
X46513857Y-46931142D01*
X46585285Y-47074000D01*
X46656714Y-47145428D01*
X46799571Y-47216857D01*
X47299571Y-47216857D01*
X45799571Y-48002571D02*
X45799571Y-47002571D01*
X45799571Y-46502571D02*
X45871000Y-46574000D01*
X45799571Y-46645428D01*
X45728142Y-46574000D01*
X45799571Y-46502571D01*
X45799571Y-46645428D01*
X44442428Y-48002571D02*
X44442428Y-47216857D01*
X44513857Y-47074000D01*
X44656714Y-47002571D01*
X44942428Y-47002571D01*
X45085285Y-47074000D01*
X44442428Y-47931142D02*
X44585285Y-48002571D01*
X44942428Y-48002571D01*
X45085285Y-47931142D01*
X45156714Y-47788285D01*
X45156714Y-47645428D01*
X45085285Y-47502571D01*
X44942428Y-47431142D01*
X44585285Y-47431142D01*
X44442428Y-47359714D01*
X43799571Y-47931142D02*
X43656714Y-48002571D01*
X43371000Y-48002571D01*
X43228142Y-47931142D01*
X43156714Y-47788285D01*
X43156714Y-47716857D01*
X43228142Y-47574000D01*
X43371000Y-47502571D01*
X43585285Y-47502571D01*
X43728142Y-47431142D01*
X43799571Y-47288285D01*
X43799571Y-47216857D01*
X43728142Y-47074000D01*
X43585285Y-47002571D01*
X43371000Y-47002571D01*
X43228142Y-47074000D01*
X42513857Y-47431142D02*
X41371000Y-47431142D01*
X40871000Y-46502571D02*
X40013857Y-46502571D01*
X40442428Y-48002571D02*
X40442428Y-46502571D01*
X57621000Y-69227571D02*
X57621000Y-68227571D01*
X57621000Y-68370428D02*
X57549571Y-68299000D01*
X57406714Y-68227571D01*
X57192428Y-68227571D01*
X57049571Y-68299000D01*
X56978142Y-68441857D01*
X56978142Y-69227571D01*
X56978142Y-68441857D02*
X56906714Y-68299000D01*
X56763857Y-68227571D01*
X56549571Y-68227571D01*
X56406714Y-68299000D01*
X56335285Y-68441857D01*
X56335285Y-69227571D01*
X55621000Y-69227571D02*
X55621000Y-68227571D01*
X55621000Y-67727571D02*
X55692428Y-67799000D01*
X55621000Y-67870428D01*
X55549571Y-67799000D01*
X55621000Y-67727571D01*
X55621000Y-67870428D01*
X54906714Y-68227571D02*
X54906714Y-69227571D01*
X54906714Y-68370428D02*
X54835285Y-68299000D01*
X54692428Y-68227571D01*
X54478142Y-68227571D01*
X54335285Y-68299000D01*
X54263857Y-68441857D01*
X54263857Y-69227571D01*
X53549571Y-69227571D02*
X53549571Y-68227571D01*
X53549571Y-67727571D02*
X53621000Y-67799000D01*
X53549571Y-67870428D01*
X53478142Y-67799000D01*
X53549571Y-67727571D01*
X53549571Y-67870428D01*
X52978142Y-67727571D02*
X52621000Y-69227571D01*
X52335285Y-68156142D01*
X52049571Y-69227571D01*
X51692428Y-67727571D01*
X51121000Y-69227571D02*
X51121000Y-67727571D01*
X50478142Y-69227571D02*
X50478142Y-68441857D01*
X50549571Y-68299000D01*
X50692428Y-68227571D01*
X50906714Y-68227571D01*
X51049571Y-68299000D01*
X51121000Y-68370428D01*
X49763857Y-69227571D02*
X49763857Y-68227571D01*
X49763857Y-67727571D02*
X49835285Y-67799000D01*
X49763857Y-67870428D01*
X49692428Y-67799000D01*
X49763857Y-67727571D01*
X49763857Y-67870428D01*
X49049571Y-68227571D02*
X49049571Y-69727571D01*
X49049571Y-68299000D02*
X48906714Y-68227571D01*
X48621000Y-68227571D01*
X48478142Y-68299000D01*
X48406714Y-68370428D01*
X48335285Y-68513285D01*
X48335285Y-68941857D01*
X48406714Y-69084714D01*
X48478142Y-69156142D01*
X48621000Y-69227571D01*
X48906714Y-69227571D01*
X49049571Y-69156142D01*
X46549571Y-69227571D02*
X46549571Y-67727571D01*
X46549571Y-68299000D02*
X46406714Y-68227571D01*
X46121000Y-68227571D01*
X45978142Y-68299000D01*
X45906714Y-68370428D01*
X45835285Y-68513285D01*
X45835285Y-68941857D01*
X45906714Y-69084714D01*
X45978142Y-69156142D01*
X46121000Y-69227571D01*
X46406714Y-69227571D01*
X46549571Y-69156142D01*
X45335285Y-68227571D02*
X44978142Y-69227571D01*
X44621000Y-68227571D02*
X44978142Y-69227571D01*
X45121000Y-69584714D01*
X45192428Y-69656142D01*
X45335285Y-69727571D01*
X42621000Y-67727571D02*
X42335285Y-67727571D01*
X42192428Y-67799000D01*
X42049571Y-67941857D01*
X41978142Y-68227571D01*
X41978142Y-68727571D01*
X42049571Y-69013285D01*
X42192428Y-69156142D01*
X42335285Y-69227571D01*
X42621000Y-69227571D01*
X42763857Y-69156142D01*
X42906714Y-69013285D01*
X42978142Y-68727571D01*
X42978142Y-68227571D01*
X42906714Y-67941857D01*
X42763857Y-67799000D01*
X42621000Y-67727571D01*
X41335285Y-68441857D02*
X40835285Y-68441857D01*
X40621000Y-69227571D02*
X41335285Y-69227571D01*
X41335285Y-67727571D01*
X40621000Y-67727571D01*
X39263857Y-67727571D02*
X39978142Y-67727571D01*
X40049571Y-68441857D01*
X39978142Y-68370428D01*
X39835285Y-68299000D01*
X39478142Y-68299000D01*
X39335285Y-68370428D01*
X39263857Y-68441857D01*
X39192428Y-68584714D01*
X39192428Y-68941857D01*
X39263857Y-69084714D01*
X39335285Y-69156142D01*
X39478142Y-69227571D01*
X39835285Y-69227571D01*
X39978142Y-69156142D01*
X40049571Y-69084714D01*
X38549571Y-69227571D02*
X38549571Y-67727571D01*
X38192428Y-67727571D01*
X37978142Y-67799000D01*
X37835285Y-67941857D01*
X37763857Y-68084714D01*
X37692428Y-68370428D01*
X37692428Y-68584714D01*
X37763857Y-68870428D01*
X37835285Y-69013285D01*
X37978142Y-69156142D01*
X38192428Y-69227571D01*
X38549571Y-69227571D01*
X37192428Y-67727571D02*
X36192428Y-69227571D01*
X36192428Y-67727571D02*
X37192428Y-69227571D01*
X34906714Y-69227571D02*
X35621000Y-69227571D01*
X35621000Y-67727571D01*
X58692428Y-71777571D02*
X58692428Y-70277571D01*
X58335285Y-70277571D01*
X58121000Y-70349000D01*
X57978142Y-70491857D01*
X57906714Y-70634714D01*
X57835285Y-70920428D01*
X57835285Y-71134714D01*
X57906714Y-71420428D01*
X57978142Y-71563285D01*
X58121000Y-71706142D01*
X58335285Y-71777571D01*
X58692428Y-71777571D01*
X56335285Y-71634714D02*
X56406714Y-71706142D01*
X56621000Y-71777571D01*
X56763857Y-71777571D01*
X56978142Y-71706142D01*
X57121000Y-71563285D01*
X57192428Y-71420428D01*
X57263857Y-71134714D01*
X57263857Y-70920428D01*
X57192428Y-70634714D01*
X57121000Y-70491857D01*
X56978142Y-70349000D01*
X56763857Y-70277571D01*
X56621000Y-70277571D01*
X56406714Y-70349000D01*
X56335285Y-70420428D01*
X55692428Y-71206142D02*
X54549571Y-71206142D01*
X53978142Y-70277571D02*
X53049571Y-70277571D01*
X53549571Y-70849000D01*
X53335285Y-70849000D01*
X53192428Y-70920428D01*
X53121000Y-70991857D01*
X53049571Y-71134714D01*
X53049571Y-71491857D01*
X53121000Y-71634714D01*
X53192428Y-71706142D01*
X53335285Y-71777571D01*
X53763857Y-71777571D01*
X53906714Y-71706142D01*
X53978142Y-71634714D01*
X52121000Y-70277571D02*
X51978142Y-70277571D01*
X51835285Y-70349000D01*
X51763857Y-70420428D01*
X51692428Y-70563285D01*
X51621000Y-70849000D01*
X51621000Y-71206142D01*
X51692428Y-71491857D01*
X51763857Y-71634714D01*
X51835285Y-71706142D01*
X51978142Y-71777571D01*
X52121000Y-71777571D01*
X52263857Y-71706142D01*
X52335285Y-71634714D01*
X52406714Y-71491857D01*
X52478142Y-71206142D01*
X52478142Y-70849000D01*
X52406714Y-70563285D01*
X52335285Y-70420428D01*
X52263857Y-70349000D01*
X52121000Y-70277571D01*
X50978142Y-71777571D02*
X50978142Y-70277571D01*
X50478142Y-71349000D01*
X49978142Y-70277571D01*
X49978142Y-71777571D01*
X49263857Y-71777571D02*
X49263857Y-70277571D01*
X49263857Y-70991857D02*
X48406714Y-70991857D01*
X48406714Y-71777571D02*
X48406714Y-70277571D01*
X47835285Y-70777571D02*
X47049571Y-70777571D01*
X47835285Y-71777571D01*
X47049571Y-71777571D01*
X42263857Y-69629000D02*
X41121000Y-69629000D01*
X41121000Y-69629000D02*
X39692428Y-69629000D01*
X40049571Y-70277571D02*
X40763857Y-70277571D01*
X40835285Y-70991857D01*
X40763857Y-70920428D01*
X40621000Y-70849000D01*
X40263857Y-70849000D01*
X40121000Y-70920428D01*
X40049571Y-70991857D01*
X39978142Y-71134714D01*
X39978142Y-71491857D01*
X40049571Y-71634714D01*
X40121000Y-71706142D01*
X40263857Y-71777571D01*
X40621000Y-71777571D01*
X40763857Y-71706142D01*
X40835285Y-71634714D01*
X39692428Y-69629000D02*
X37835285Y-69629000D01*
X39335285Y-71206142D02*
X38192428Y-71206142D01*
X37835285Y-69629000D02*
X36406714Y-69629000D01*
X36692428Y-71777571D02*
X37549571Y-71777571D01*
X37121000Y-71777571D02*
X37121000Y-70277571D01*
X37263857Y-70491857D01*
X37406714Y-70634714D01*
X37549571Y-70706142D01*
X36406714Y-69629000D02*
X34978142Y-69629000D01*
X35335285Y-70277571D02*
X36049571Y-70277571D01*
X36121000Y-70991857D01*
X36049571Y-70920428D01*
X35906714Y-70849000D01*
X35549571Y-70849000D01*
X35406714Y-70920428D01*
X35335285Y-70991857D01*
X35263857Y-71134714D01*
X35263857Y-71491857D01*
X35335285Y-71634714D01*
X35406714Y-71706142D01*
X35549571Y-71777571D01*
X35906714Y-71777571D01*
X36049571Y-71706142D01*
X36121000Y-71634714D01*
X34978142Y-69629000D02*
X33692428Y-69629000D01*
X34835285Y-70277571D02*
X34335285Y-71777571D01*
X33835285Y-70277571D01*
M02*
