%TF.GenerationSoftware,KiCad,Pcbnew,5.1.7-a382d34a88~89~ubuntu20.04.1*%
%TF.CreationDate,2021-11-17T19:13:42+01:00*%
%TF.ProjectId,miniWhip,6d696e69-5768-4697-902e-6b696361645f,rev?*%
%TF.SameCoordinates,Original*%
%TF.FileFunction,Soldermask,Bot*%
%TF.FilePolarity,Negative*%
%FSLAX46Y46*%
G04 Gerber Fmt 4.6, Leading zero omitted, Abs format (unit mm)*
G04 Created by KiCad (PCBNEW 5.1.7-a382d34a88~89~ubuntu20.04.1) date 2021-11-17 19:13:42*
%MOMM*%
%LPD*%
G01*
G04 APERTURE LIST*
%ADD10R,1.300000X1.300000*%
%ADD11C,1.300000*%
%ADD12C,1.400000*%
%ADD13O,2.000000X1.905000*%
%ADD14R,2.000000X1.905000*%
%ADD15O,2.400000X2.400000*%
%ADD16C,2.400000*%
%ADD17R,5.080000X1.500000*%
%ADD18C,3.000000*%
%ADD19O,1.200000X1.600000*%
%ADD20O,1.200000X1.200000*%
%ADD21C,0.254000*%
%ADD22C,0.100000*%
G04 APERTURE END LIST*
D10*
%TO.C,Q1*%
X39621000Y-66324000D03*
D11*
X39621000Y-63784000D03*
X38351000Y-65054000D03*
%TD*%
D12*
%TO.C,TP2*%
X33121000Y-35864000D03*
X33121000Y-33324000D03*
%TD*%
D13*
%TO.C,U2*%
X36521000Y-37604000D03*
X36521000Y-35064000D03*
D14*
X36521000Y-32524000D03*
%TD*%
D15*
%TO.C,R23*%
X51371000Y-32204000D03*
D16*
X51371000Y-39824000D03*
%TD*%
D17*
%TO.C,J6*%
X68471000Y-43124000D03*
X68471000Y-51624000D03*
%TD*%
%TO.C,J5*%
X33571000Y-51624000D03*
X33571000Y-43124000D03*
%TD*%
D18*
%TO.C,TP1*%
X33671000Y-66374000D03*
%TD*%
D17*
%TO.C,J4*%
X68471000Y-67424000D03*
X68471000Y-58924000D03*
%TD*%
D10*
%TO.C,Q2*%
X53421000Y-66574000D03*
D11*
X53421000Y-64034000D03*
X52151000Y-65304000D03*
%TD*%
D19*
%TO.C,Q3*%
X60471000Y-70074000D03*
D20*
X63011000Y-67534000D03*
X60471000Y-64994000D03*
%TD*%
D16*
%TO.C,R19*%
X52971000Y-59274000D03*
G36*
G01*
X59172244Y-60935618D02*
X59172244Y-60935618D01*
G75*
G02*
X60641938Y-60087090I1159111J-310583D01*
G01*
X60641938Y-60087090D01*
G75*
G02*
X61490466Y-61556784I-310583J-1159111D01*
G01*
X61490466Y-61556784D01*
G75*
G02*
X60020772Y-62405312I-1159111J310583D01*
G01*
X60020772Y-62405312D01*
G75*
G02*
X59172244Y-60935618I310583J1159111D01*
G01*
G37*
%TD*%
D21*
X71244000Y-70447000D02*
X64748000Y-70447000D01*
X64748000Y-55701000D01*
X71244000Y-55701000D01*
X71244000Y-70447000D01*
D22*
G36*
X71244000Y-70447000D02*
G01*
X64748000Y-70447000D01*
X64748000Y-55701000D01*
X71244000Y-55701000D01*
X71244000Y-70447000D01*
G37*
D21*
X71244000Y-53197000D02*
X64748000Y-53197000D01*
X64748000Y-41153062D01*
X71244000Y-41153062D01*
X71244000Y-53197000D01*
D22*
G36*
X71244000Y-53197000D02*
G01*
X64748000Y-53197000D01*
X64748000Y-41153062D01*
X71244000Y-41153062D01*
X71244000Y-53197000D01*
G37*
D21*
X37494000Y-53197000D02*
X30998000Y-53197000D01*
X30998000Y-41153062D01*
X37494000Y-41153062D01*
X37494000Y-53197000D01*
D22*
G36*
X37494000Y-53197000D02*
G01*
X30998000Y-53197000D01*
X30998000Y-41153062D01*
X37494000Y-41153062D01*
X37494000Y-53197000D01*
G37*
M02*
