M48
; DRILL file {KiCad 5.1.7-a382d34a88~89~ubuntu20.04.1} date Wed Nov 17 19:13:51 2021
; FORMAT={-:-/ absolute / metric / decimal}
; #@! TF.CreationDate,2021-11-17T19:13:51+01:00
; #@! TF.GenerationSoftware,Kicad,Pcbnew,5.1.7-a382d34a88~89~ubuntu20.04.1
FMAT,2
METRIC
T1C0.400
T2C0.700
T3C0.750
T4C0.800
T5C1.100
T6C1.200
T7C1.600
%
G90
G05
T1
X31.571Y-43.174
X31.571Y-51.674
X32.671Y-43.174
X32.671Y-51.674
X33.771Y-43.174
X33.771Y-51.674
X34.871Y-43.174
X34.871Y-51.674
X35.971Y-43.174
X35.971Y-51.674
X37.871Y-58.074
X39.121Y-57.174
X40.721Y-32.624
X40.721Y-34.324
X40.721Y-39.524
X40.871Y-57.174
X42.121Y-72.574
X42.621Y-32.574
X42.621Y-34.074
X42.621Y-39.574
X42.621Y-57.174
X44.171Y-69.674
X44.371Y-71.974
X44.621Y-57.174
X46.621Y-57.174
X48.471Y-63.774
X48.471Y-72.074
X48.621Y-57.174
X49.471Y-62.474
X50.271Y-63.774
X50.371Y-72.324
X50.871Y-57.174
X51.871Y-72.324
X52.271Y-62.174
X53.371Y-57.174
X53.371Y-72.274
X54.571Y-62.174
X55.371Y-72.324
X55.621Y-57.174
X55.671Y-63.374
X56.871Y-61.174
X57.121Y-72.324
X57.871Y-57.174
X58.121Y-69.074
X58.121Y-70.074
X58.121Y-71.074
X58.371Y-63.374
X58.871Y-72.324
X59.121Y-69.074
X59.121Y-70.074
X59.121Y-71.074
X60.121Y-57.174
X60.621Y-72.324
X61.871Y-69.074
X61.871Y-70.074
X61.871Y-71.074
X62.371Y-57.174
X62.371Y-72.324
X62.871Y-69.074
X62.871Y-70.074
X62.871Y-71.074
X62.971Y-64.574
X64.121Y-68.824
X64.121Y-70.574
X64.121Y-72.324
X64.371Y-57.174
X64.871Y-38.074
X64.871Y-39.574
X64.871Y-41.074
X65.971Y-51.674
X66.071Y-43.174
X66.121Y-68.824
X66.121Y-70.574
X66.121Y-72.324
X66.371Y-58.874
X66.371Y-67.374
X66.471Y-38.074
X66.471Y-39.574
X66.471Y-41.074
X67.071Y-51.674
X67.171Y-43.174
X67.471Y-58.874
X67.471Y-67.374
X68.121Y-68.824
X68.121Y-70.574
X68.121Y-72.324
X68.171Y-51.674
X68.271Y-43.174
X68.471Y-58.874
X68.471Y-67.374
X69.271Y-51.674
X69.371Y-43.174
X69.471Y-58.874
X69.471Y-67.374
X70.121Y-68.824
X70.121Y-70.574
X70.121Y-72.324
X70.371Y-51.674
X70.471Y-43.174
X70.471Y-58.874
X70.471Y-67.374
T2
X60.471Y-64.994
X60.471Y-70.074
X63.011Y-67.534
T3
X38.351Y-65.054
X39.621Y-63.784
X39.621Y-66.324
X52.151Y-65.304
X53.421Y-64.034
X53.421Y-66.574
T4
X33.121Y-33.324
X33.121Y-35.864
T5
X36.521Y-32.524
X36.521Y-35.064
X36.521Y-37.604
T6
X52.971Y-59.274
X60.331Y-61.246
X51.371Y-32.204
X51.371Y-39.824
T7
X33.671Y-66.374
T0
M30
