%TF.GenerationSoftware,KiCad,Pcbnew,5.1.7-a382d34a88~89~ubuntu20.04.1*%
%TF.CreationDate,2021-11-17T19:13:42+01:00*%
%TF.ProjectId,miniWhip,6d696e69-5768-4697-902e-6b696361645f,rev?*%
%TF.SameCoordinates,Original*%
%TF.FileFunction,Legend,Top*%
%TF.FilePolarity,Positive*%
%FSLAX46Y46*%
G04 Gerber Fmt 4.6, Leading zero omitted, Abs format (unit mm)*
G04 Created by KiCad (PCBNEW 5.1.7-a382d34a88~89~ubuntu20.04.1) date 2021-11-17 19:13:42*
%MOMM*%
%LPD*%
G01*
G04 APERTURE LIST*
%ADD10C,0.300000*%
%ADD11C,0.120000*%
%ADD12C,0.150000*%
G04 APERTURE END LIST*
D10*
X41835285Y-58252571D02*
X42335285Y-59752571D01*
X42835285Y-58252571D01*
X44121000Y-59752571D02*
X43263857Y-59752571D01*
X43692428Y-59752571D02*
X43692428Y-58252571D01*
X43549571Y-58466857D01*
X43406714Y-58609714D01*
X43263857Y-58681142D01*
X44763857Y-59609714D02*
X44835285Y-59681142D01*
X44763857Y-59752571D01*
X44692428Y-59681142D01*
X44763857Y-59609714D01*
X44763857Y-59752571D01*
X45406714Y-58395428D02*
X45478142Y-58324000D01*
X45621000Y-58252571D01*
X45978142Y-58252571D01*
X46121000Y-58324000D01*
X46192428Y-58395428D01*
X46263857Y-58538285D01*
X46263857Y-58681142D01*
X46192428Y-58895428D01*
X45335285Y-59752571D01*
X46263857Y-59752571D01*
D11*
%TO.C,R12*%
X37238224Y-60096500D02*
X36728776Y-60096500D01*
X37238224Y-59051500D02*
X36728776Y-59051500D01*
%TO.C,Q1*%
X41471000Y-66854000D02*
X41471000Y-63254000D01*
X41459478Y-63215522D02*
G75*
G03*
X37021000Y-65054000I-1838478J-1838478D01*
G01*
X41459478Y-66892478D02*
G75*
G02*
X37021000Y-65054000I-1838478J1838478D01*
G01*
%TO.C,L2*%
X63081000Y-43876631D02*
X63081000Y-45471369D01*
X58661000Y-43876631D02*
X58661000Y-45471369D01*
%TO.C,L1*%
X48071000Y-42624000D02*
X45071000Y-42624000D01*
X45071000Y-42624000D02*
X45071000Y-30024000D01*
X45071000Y-30024000D02*
X48071000Y-30024000D01*
X54671000Y-30024000D02*
X57671000Y-30024000D01*
X57671000Y-30024000D02*
X57671000Y-42624000D01*
X57671000Y-42624000D02*
X54671000Y-42624000D01*
%TO.C,D11*%
X58106000Y-61749000D02*
X58106000Y-57689000D01*
X58106000Y-57689000D02*
X55836000Y-57689000D01*
X55836000Y-57689000D02*
X55836000Y-61749000D01*
%TO.C,D10*%
X47506000Y-71424000D02*
X47506000Y-67364000D01*
X47506000Y-67364000D02*
X45236000Y-67364000D01*
X45236000Y-67364000D02*
X45236000Y-71424000D01*
%TO.C,D9*%
X47506000Y-67049000D02*
X47506000Y-62989000D01*
X47506000Y-62989000D02*
X45236000Y-62989000D01*
X45236000Y-62989000D02*
X45236000Y-67049000D01*
%TO.C,D8*%
X40986000Y-69299000D02*
X40986000Y-73359000D01*
X40986000Y-73359000D02*
X43256000Y-73359000D01*
X43256000Y-73359000D02*
X43256000Y-69299000D01*
%TO.C,D7*%
X41006000Y-72549000D02*
X41006000Y-68489000D01*
X41006000Y-68489000D02*
X38736000Y-68489000D01*
X38736000Y-68489000D02*
X38736000Y-72549000D01*
%TO.C,D6*%
X36486000Y-69299000D02*
X36486000Y-73359000D01*
X36486000Y-73359000D02*
X38756000Y-73359000D01*
X38756000Y-73359000D02*
X38756000Y-69299000D01*
%TO.C,D5*%
X34536000Y-67711500D02*
X34536000Y-71771500D01*
X34536000Y-71771500D02*
X36806000Y-71771500D01*
X36806000Y-71771500D02*
X36806000Y-67711500D01*
D12*
%TO.C,TP2*%
X34021000Y-32794000D02*
X34021000Y-36394000D01*
X34021000Y-36394000D02*
X33521000Y-36894000D01*
X33521000Y-36894000D02*
X32721000Y-36894000D01*
X32721000Y-36894000D02*
X32221000Y-36394000D01*
X32221000Y-36394000D02*
X32221000Y-32794000D01*
X32221000Y-32794000D02*
X32721000Y-32294000D01*
X32721000Y-32294000D02*
X33521000Y-32294000D01*
X33521000Y-32294000D02*
X34021000Y-32794000D01*
D11*
%TO.C,U2*%
X39791000Y-29944000D02*
X39791000Y-40184000D01*
X35150000Y-29944000D02*
X35150000Y-40184000D01*
X39791000Y-29944000D02*
X35150000Y-29944000D01*
X39791000Y-40184000D02*
X35150000Y-40184000D01*
X38281000Y-29944000D02*
X38281000Y-40184000D01*
X39791000Y-33214000D02*
X38281000Y-33214000D01*
X39791000Y-36915000D02*
X38281000Y-36915000D01*
%TO.C,R23*%
X54491000Y-39824000D02*
G75*
G03*
X54491000Y-39824000I-3120000J0D01*
G01*
X51371000Y-36704000D02*
X51371000Y-33704000D01*
%TO.C,J6*%
X64761000Y-47624000D02*
X65261000Y-47374000D01*
X64761000Y-47124000D02*
X64761000Y-47624000D01*
X65261000Y-47374000D02*
X64761000Y-47124000D01*
%TO.C,J5*%
X37281000Y-47124000D02*
X36781000Y-47374000D01*
X37281000Y-47624000D02*
X37281000Y-47124000D01*
X36781000Y-47374000D02*
X37281000Y-47624000D01*
%TO.C,C22*%
X60411000Y-40834000D02*
X64161000Y-40834000D01*
X70931000Y-40834000D02*
X67181000Y-40834000D01*
X70931000Y-31378437D02*
X70931000Y-40834000D01*
X60411000Y-31378437D02*
X60411000Y-40834000D01*
X61475437Y-30314000D02*
X64161000Y-30314000D01*
X69866563Y-30314000D02*
X67181000Y-30314000D01*
X69866563Y-30314000D02*
X70931000Y-31378437D01*
X61475437Y-30314000D02*
X60411000Y-31378437D01*
X68431000Y-28824000D02*
X68431000Y-30074000D01*
X69056000Y-29449000D02*
X67806000Y-29449000D01*
%TO.C,C21*%
X43131000Y-38427733D02*
X43131000Y-38720267D01*
X42111000Y-38427733D02*
X42111000Y-38720267D01*
%TO.C,C20*%
X40211000Y-35307767D02*
X40211000Y-35015233D01*
X41231000Y-35307767D02*
X41231000Y-35015233D01*
%TO.C,C19*%
X41231000Y-38440233D02*
X41231000Y-38732767D01*
X40211000Y-38440233D02*
X40211000Y-38732767D01*
%TO.C,C18*%
X42111000Y-35220267D02*
X42111000Y-34927733D01*
X43131000Y-35220267D02*
X43131000Y-34927733D01*
%TO.C,C17*%
X43131000Y-31540233D02*
X43131000Y-31832767D01*
X42111000Y-31540233D02*
X42111000Y-31832767D01*
%TO.C,C16*%
X42279767Y-47884000D02*
X41987233Y-47884000D01*
X42279767Y-46864000D02*
X41987233Y-46864000D01*
%TO.C,C15*%
X41231000Y-31615233D02*
X41231000Y-31907767D01*
X40211000Y-31615233D02*
X40211000Y-31907767D01*
%TO.C,TP1*%
X35371000Y-66374000D02*
G75*
G03*
X35371000Y-66374000I-1700000J0D01*
G01*
%TO.C,C11*%
X37154767Y-60664000D02*
X36862233Y-60664000D01*
X37154767Y-61684000D02*
X36862233Y-61684000D01*
%TO.C,C12*%
X43661000Y-65557767D02*
X43661000Y-65265233D01*
X44681000Y-65557767D02*
X44681000Y-65265233D01*
%TO.C,C13*%
X48862233Y-65884000D02*
X49154767Y-65884000D01*
X48862233Y-64864000D02*
X49154767Y-64864000D01*
%TO.C,C14*%
X50481000Y-67665233D02*
X50481000Y-67957767D01*
X49461000Y-67665233D02*
X49461000Y-67957767D01*
%TO.C,J4*%
X64761000Y-63424000D02*
X65261000Y-63174000D01*
X64761000Y-62924000D02*
X64761000Y-63424000D01*
X65261000Y-63174000D02*
X64761000Y-62924000D01*
%TO.C,Q2*%
X55271000Y-67104000D02*
X55271000Y-63504000D01*
X55259478Y-63465522D02*
G75*
G03*
X50821000Y-65304000I-1838478J-1838478D01*
G01*
X55259478Y-67142478D02*
G75*
G02*
X50821000Y-65304000I-1838478J1838478D01*
G01*
%TO.C,Q3*%
X56696098Y-70531084D02*
X55805144Y-71422039D01*
X55805144Y-71422039D02*
X56582961Y-72199856D01*
X56582961Y-72199856D02*
X57473916Y-71308902D01*
X57473629Y-71308674D02*
G75*
G03*
X56696098Y-70531084I2997371J3774674D01*
G01*
%TO.C,R10*%
X36716276Y-57551500D02*
X37225724Y-57551500D01*
X36716276Y-58596500D02*
X37225724Y-58596500D01*
%TO.C,R11*%
X35148500Y-63531776D02*
X35148500Y-64041224D01*
X36193500Y-63531776D02*
X36193500Y-64041224D01*
%TO.C,R13*%
X42048500Y-66206776D02*
X42048500Y-66716224D01*
X43093500Y-66206776D02*
X43093500Y-66716224D01*
%TO.C,R14*%
X44693500Y-68531776D02*
X44693500Y-69041224D01*
X43648500Y-68531776D02*
X43648500Y-69041224D01*
%TO.C,R15*%
X48993500Y-70906776D02*
X48993500Y-71416224D01*
X47948500Y-70906776D02*
X47948500Y-71416224D01*
%TO.C,R16*%
X48993500Y-67519276D02*
X48993500Y-68028724D01*
X47948500Y-67519276D02*
X47948500Y-68028724D01*
%TO.C,R17*%
X52216276Y-68351500D02*
X52725724Y-68351500D01*
X52216276Y-69396500D02*
X52725724Y-69396500D01*
%TO.C,R18*%
X53893500Y-71106776D02*
X53893500Y-71616224D01*
X52848500Y-71106776D02*
X52848500Y-71616224D01*
%TO.C,R19*%
X56091000Y-59274000D02*
G75*
G03*
X56091000Y-59274000I-3120000J0D01*
G01*
X55984689Y-60081515D02*
X58882466Y-60857973D01*
%TO.C,R12*%
D12*
X36340642Y-61456380D02*
X36007309Y-60980190D01*
X35769214Y-61456380D02*
X35769214Y-60456380D01*
X36150166Y-60456380D01*
X36245404Y-60504000D01*
X36293023Y-60551619D01*
X36340642Y-60646857D01*
X36340642Y-60789714D01*
X36293023Y-60884952D01*
X36245404Y-60932571D01*
X36150166Y-60980190D01*
X35769214Y-60980190D01*
X37293023Y-61456380D02*
X36721595Y-61456380D01*
X37007309Y-61456380D02*
X37007309Y-60456380D01*
X36912071Y-60599238D01*
X36816833Y-60694476D01*
X36721595Y-60742095D01*
X37673976Y-60551619D02*
X37721595Y-60504000D01*
X37816833Y-60456380D01*
X38054928Y-60456380D01*
X38150166Y-60504000D01*
X38197785Y-60551619D01*
X38245404Y-60646857D01*
X38245404Y-60742095D01*
X38197785Y-60884952D01*
X37626357Y-61456380D01*
X38245404Y-61456380D01*
%TO.C,Q1*%
X36608619Y-65149238D02*
X36561000Y-65244476D01*
X36465761Y-65339714D01*
X36322904Y-65482571D01*
X36275285Y-65577809D01*
X36275285Y-65673047D01*
X36513380Y-65625428D02*
X36465761Y-65720666D01*
X36370523Y-65815904D01*
X36180047Y-65863523D01*
X35846714Y-65863523D01*
X35656238Y-65815904D01*
X35561000Y-65720666D01*
X35513380Y-65625428D01*
X35513380Y-65434952D01*
X35561000Y-65339714D01*
X35656238Y-65244476D01*
X35846714Y-65196857D01*
X36180047Y-65196857D01*
X36370523Y-65244476D01*
X36465761Y-65339714D01*
X36513380Y-65434952D01*
X36513380Y-65625428D01*
X36513380Y-64244476D02*
X36513380Y-64815904D01*
X36513380Y-64530190D02*
X35513380Y-64530190D01*
X35656238Y-64625428D01*
X35751476Y-64720666D01*
X35799095Y-64815904D01*
%TO.C,L2*%
X64503380Y-44840666D02*
X64503380Y-45316857D01*
X63503380Y-45316857D01*
X63598619Y-44554952D02*
X63551000Y-44507333D01*
X63503380Y-44412095D01*
X63503380Y-44174000D01*
X63551000Y-44078761D01*
X63598619Y-44031142D01*
X63693857Y-43983523D01*
X63789095Y-43983523D01*
X63931952Y-44031142D01*
X64503380Y-44602571D01*
X64503380Y-43983523D01*
%TO.C,L1*%
X59223380Y-36490666D02*
X59223380Y-36966857D01*
X58223380Y-36966857D01*
X59223380Y-35633523D02*
X59223380Y-36204952D01*
X59223380Y-35919238D02*
X58223380Y-35919238D01*
X58366238Y-36014476D01*
X58461476Y-36109714D01*
X58509095Y-36204952D01*
%TO.C,D11*%
X59243380Y-61363285D02*
X58243380Y-61363285D01*
X58243380Y-61125190D01*
X58291000Y-60982333D01*
X58386238Y-60887095D01*
X58481476Y-60839476D01*
X58671952Y-60791857D01*
X58814809Y-60791857D01*
X59005285Y-60839476D01*
X59100523Y-60887095D01*
X59195761Y-60982333D01*
X59243380Y-61125190D01*
X59243380Y-61363285D01*
X59243380Y-59839476D02*
X59243380Y-60410904D01*
X59243380Y-60125190D02*
X58243380Y-60125190D01*
X58386238Y-60220428D01*
X58481476Y-60315666D01*
X58529095Y-60410904D01*
X59243380Y-58887095D02*
X59243380Y-59458523D01*
X59243380Y-59172809D02*
X58243380Y-59172809D01*
X58386238Y-59268047D01*
X58481476Y-59363285D01*
X58529095Y-59458523D01*
%TO.C,D10*%
X48643380Y-71038285D02*
X47643380Y-71038285D01*
X47643380Y-70800190D01*
X47691000Y-70657333D01*
X47786238Y-70562095D01*
X47881476Y-70514476D01*
X48071952Y-70466857D01*
X48214809Y-70466857D01*
X48405285Y-70514476D01*
X48500523Y-70562095D01*
X48595761Y-70657333D01*
X48643380Y-70800190D01*
X48643380Y-71038285D01*
X48643380Y-69514476D02*
X48643380Y-70085904D01*
X48643380Y-69800190D02*
X47643380Y-69800190D01*
X47786238Y-69895428D01*
X47881476Y-69990666D01*
X47929095Y-70085904D01*
X47643380Y-68895428D02*
X47643380Y-68800190D01*
X47691000Y-68704952D01*
X47738619Y-68657333D01*
X47833857Y-68609714D01*
X48024333Y-68562095D01*
X48262428Y-68562095D01*
X48452904Y-68609714D01*
X48548142Y-68657333D01*
X48595761Y-68704952D01*
X48643380Y-68800190D01*
X48643380Y-68895428D01*
X48595761Y-68990666D01*
X48548142Y-69038285D01*
X48452904Y-69085904D01*
X48262428Y-69133523D01*
X48024333Y-69133523D01*
X47833857Y-69085904D01*
X47738619Y-69038285D01*
X47691000Y-68990666D01*
X47643380Y-68895428D01*
%TO.C,D9*%
X48643380Y-66187095D02*
X47643380Y-66187095D01*
X47643380Y-65949000D01*
X47691000Y-65806142D01*
X47786238Y-65710904D01*
X47881476Y-65663285D01*
X48071952Y-65615666D01*
X48214809Y-65615666D01*
X48405285Y-65663285D01*
X48500523Y-65710904D01*
X48595761Y-65806142D01*
X48643380Y-65949000D01*
X48643380Y-66187095D01*
X48643380Y-65139476D02*
X48643380Y-64949000D01*
X48595761Y-64853761D01*
X48548142Y-64806142D01*
X48405285Y-64710904D01*
X48214809Y-64663285D01*
X47833857Y-64663285D01*
X47738619Y-64710904D01*
X47691000Y-64758523D01*
X47643380Y-64853761D01*
X47643380Y-65044238D01*
X47691000Y-65139476D01*
X47738619Y-65187095D01*
X47833857Y-65234714D01*
X48071952Y-65234714D01*
X48167190Y-65187095D01*
X48214809Y-65139476D01*
X48262428Y-65044238D01*
X48262428Y-64853761D01*
X48214809Y-64758523D01*
X48167190Y-64710904D01*
X48071952Y-64663285D01*
%TO.C,D8*%
X40753380Y-71637095D02*
X39753380Y-71637095D01*
X39753380Y-71399000D01*
X39801000Y-71256142D01*
X39896238Y-71160904D01*
X39991476Y-71113285D01*
X40181952Y-71065666D01*
X40324809Y-71065666D01*
X40515285Y-71113285D01*
X40610523Y-71160904D01*
X40705761Y-71256142D01*
X40753380Y-71399000D01*
X40753380Y-71637095D01*
X40181952Y-70494238D02*
X40134333Y-70589476D01*
X40086714Y-70637095D01*
X39991476Y-70684714D01*
X39943857Y-70684714D01*
X39848619Y-70637095D01*
X39801000Y-70589476D01*
X39753380Y-70494238D01*
X39753380Y-70303761D01*
X39801000Y-70208523D01*
X39848619Y-70160904D01*
X39943857Y-70113285D01*
X39991476Y-70113285D01*
X40086714Y-70160904D01*
X40134333Y-70208523D01*
X40181952Y-70303761D01*
X40181952Y-70494238D01*
X40229571Y-70589476D01*
X40277190Y-70637095D01*
X40372428Y-70684714D01*
X40562904Y-70684714D01*
X40658142Y-70637095D01*
X40705761Y-70589476D01*
X40753380Y-70494238D01*
X40753380Y-70303761D01*
X40705761Y-70208523D01*
X40658142Y-70160904D01*
X40562904Y-70113285D01*
X40372428Y-70113285D01*
X40277190Y-70160904D01*
X40229571Y-70208523D01*
X40181952Y-70303761D01*
%TO.C,D7*%
X42143380Y-71687095D02*
X41143380Y-71687095D01*
X41143380Y-71449000D01*
X41191000Y-71306142D01*
X41286238Y-71210904D01*
X41381476Y-71163285D01*
X41571952Y-71115666D01*
X41714809Y-71115666D01*
X41905285Y-71163285D01*
X42000523Y-71210904D01*
X42095761Y-71306142D01*
X42143380Y-71449000D01*
X42143380Y-71687095D01*
X41143380Y-70782333D02*
X41143380Y-70115666D01*
X42143380Y-70544238D01*
%TO.C,D6*%
X36253380Y-71637095D02*
X35253380Y-71637095D01*
X35253380Y-71399000D01*
X35301000Y-71256142D01*
X35396238Y-71160904D01*
X35491476Y-71113285D01*
X35681952Y-71065666D01*
X35824809Y-71065666D01*
X36015285Y-71113285D01*
X36110523Y-71160904D01*
X36205761Y-71256142D01*
X36253380Y-71399000D01*
X36253380Y-71637095D01*
X35253380Y-70208523D02*
X35253380Y-70399000D01*
X35301000Y-70494238D01*
X35348619Y-70541857D01*
X35491476Y-70637095D01*
X35681952Y-70684714D01*
X36062904Y-70684714D01*
X36158142Y-70637095D01*
X36205761Y-70589476D01*
X36253380Y-70494238D01*
X36253380Y-70303761D01*
X36205761Y-70208523D01*
X36158142Y-70160904D01*
X36062904Y-70113285D01*
X35824809Y-70113285D01*
X35729571Y-70160904D01*
X35681952Y-70208523D01*
X35634333Y-70303761D01*
X35634333Y-70494238D01*
X35681952Y-70589476D01*
X35729571Y-70637095D01*
X35824809Y-70684714D01*
%TO.C,D5*%
X34303380Y-70049595D02*
X33303380Y-70049595D01*
X33303380Y-69811500D01*
X33351000Y-69668642D01*
X33446238Y-69573404D01*
X33541476Y-69525785D01*
X33731952Y-69478166D01*
X33874809Y-69478166D01*
X34065285Y-69525785D01*
X34160523Y-69573404D01*
X34255761Y-69668642D01*
X34303380Y-69811500D01*
X34303380Y-70049595D01*
X33303380Y-68573404D02*
X33303380Y-69049595D01*
X33779571Y-69097214D01*
X33731952Y-69049595D01*
X33684333Y-68954357D01*
X33684333Y-68716261D01*
X33731952Y-68621023D01*
X33779571Y-68573404D01*
X33874809Y-68525785D01*
X34112904Y-68525785D01*
X34208142Y-68573404D01*
X34255761Y-68621023D01*
X34303380Y-68716261D01*
X34303380Y-68954357D01*
X34255761Y-69049595D01*
X34208142Y-69097214D01*
%TO.C,TP2*%
X34573380Y-35885904D02*
X34573380Y-35314476D01*
X35573380Y-35600190D02*
X34573380Y-35600190D01*
X35573380Y-34981142D02*
X34573380Y-34981142D01*
X34573380Y-34600190D01*
X34621000Y-34504952D01*
X34668619Y-34457333D01*
X34763857Y-34409714D01*
X34906714Y-34409714D01*
X35001952Y-34457333D01*
X35049571Y-34504952D01*
X35097190Y-34600190D01*
X35097190Y-34981142D01*
X34668619Y-34028761D02*
X34621000Y-33981142D01*
X34573380Y-33885904D01*
X34573380Y-33647809D01*
X34621000Y-33552571D01*
X34668619Y-33504952D01*
X34763857Y-33457333D01*
X34859095Y-33457333D01*
X35001952Y-33504952D01*
X35573380Y-34076380D01*
X35573380Y-33457333D01*
%TO.C,U2*%
X40243380Y-35825904D02*
X41052904Y-35825904D01*
X41148142Y-35778285D01*
X41195761Y-35730666D01*
X41243380Y-35635428D01*
X41243380Y-35444952D01*
X41195761Y-35349714D01*
X41148142Y-35302095D01*
X41052904Y-35254476D01*
X40243380Y-35254476D01*
X40338619Y-34825904D02*
X40291000Y-34778285D01*
X40243380Y-34683047D01*
X40243380Y-34444952D01*
X40291000Y-34349714D01*
X40338619Y-34302095D01*
X40433857Y-34254476D01*
X40529095Y-34254476D01*
X40671952Y-34302095D01*
X41243380Y-34873523D01*
X41243380Y-34254476D01*
%TO.C,R23*%
X47703380Y-36656857D02*
X47227190Y-36990190D01*
X47703380Y-37228285D02*
X46703380Y-37228285D01*
X46703380Y-36847333D01*
X46751000Y-36752095D01*
X46798619Y-36704476D01*
X46893857Y-36656857D01*
X47036714Y-36656857D01*
X47131952Y-36704476D01*
X47179571Y-36752095D01*
X47227190Y-36847333D01*
X47227190Y-37228285D01*
X46798619Y-36275904D02*
X46751000Y-36228285D01*
X46703380Y-36133047D01*
X46703380Y-35894952D01*
X46751000Y-35799714D01*
X46798619Y-35752095D01*
X46893857Y-35704476D01*
X46989095Y-35704476D01*
X47131952Y-35752095D01*
X47703380Y-36323523D01*
X47703380Y-35704476D01*
X46703380Y-35371142D02*
X46703380Y-34752095D01*
X47084333Y-35085428D01*
X47084333Y-34942571D01*
X47131952Y-34847333D01*
X47179571Y-34799714D01*
X47274809Y-34752095D01*
X47512904Y-34752095D01*
X47608142Y-34799714D01*
X47655761Y-34847333D01*
X47703380Y-34942571D01*
X47703380Y-35228285D01*
X47655761Y-35323523D01*
X47608142Y-35371142D01*
%TO.C,J6*%
X63963380Y-44707333D02*
X64677666Y-44707333D01*
X64820523Y-44754952D01*
X64915761Y-44850190D01*
X64963380Y-44993047D01*
X64963380Y-45088285D01*
X63963380Y-43802571D02*
X63963380Y-43993047D01*
X64011000Y-44088285D01*
X64058619Y-44135904D01*
X64201476Y-44231142D01*
X64391952Y-44278761D01*
X64772904Y-44278761D01*
X64868142Y-44231142D01*
X64915761Y-44183523D01*
X64963380Y-44088285D01*
X64963380Y-43897809D01*
X64915761Y-43802571D01*
X64868142Y-43754952D01*
X64772904Y-43707333D01*
X64534809Y-43707333D01*
X64439571Y-43754952D01*
X64391952Y-43802571D01*
X64344333Y-43897809D01*
X64344333Y-44088285D01*
X64391952Y-44183523D01*
X64439571Y-44231142D01*
X64534809Y-44278761D01*
%TO.C,J5*%
X36983380Y-50707333D02*
X37697666Y-50707333D01*
X37840523Y-50754952D01*
X37935761Y-50850190D01*
X37983380Y-50993047D01*
X37983380Y-51088285D01*
X36983380Y-49754952D02*
X36983380Y-50231142D01*
X37459571Y-50278761D01*
X37411952Y-50231142D01*
X37364333Y-50135904D01*
X37364333Y-49897809D01*
X37411952Y-49802571D01*
X37459571Y-49754952D01*
X37554809Y-49707333D01*
X37792904Y-49707333D01*
X37888142Y-49754952D01*
X37935761Y-49802571D01*
X37983380Y-49897809D01*
X37983380Y-50135904D01*
X37935761Y-50231142D01*
X37888142Y-50278761D01*
%TO.C,C22*%
X72228142Y-36216857D02*
X72275761Y-36264476D01*
X72323380Y-36407333D01*
X72323380Y-36502571D01*
X72275761Y-36645428D01*
X72180523Y-36740666D01*
X72085285Y-36788285D01*
X71894809Y-36835904D01*
X71751952Y-36835904D01*
X71561476Y-36788285D01*
X71466238Y-36740666D01*
X71371000Y-36645428D01*
X71323380Y-36502571D01*
X71323380Y-36407333D01*
X71371000Y-36264476D01*
X71418619Y-36216857D01*
X71418619Y-35835904D02*
X71371000Y-35788285D01*
X71323380Y-35693047D01*
X71323380Y-35454952D01*
X71371000Y-35359714D01*
X71418619Y-35312095D01*
X71513857Y-35264476D01*
X71609095Y-35264476D01*
X71751952Y-35312095D01*
X72323380Y-35883523D01*
X72323380Y-35264476D01*
X71418619Y-34883523D02*
X71371000Y-34835904D01*
X71323380Y-34740666D01*
X71323380Y-34502571D01*
X71371000Y-34407333D01*
X71418619Y-34359714D01*
X71513857Y-34312095D01*
X71609095Y-34312095D01*
X71751952Y-34359714D01*
X72323380Y-34931142D01*
X72323380Y-34312095D01*
%TO.C,C21*%
X44408142Y-39216857D02*
X44455761Y-39264476D01*
X44503380Y-39407333D01*
X44503380Y-39502571D01*
X44455761Y-39645428D01*
X44360523Y-39740666D01*
X44265285Y-39788285D01*
X44074809Y-39835904D01*
X43931952Y-39835904D01*
X43741476Y-39788285D01*
X43646238Y-39740666D01*
X43551000Y-39645428D01*
X43503380Y-39502571D01*
X43503380Y-39407333D01*
X43551000Y-39264476D01*
X43598619Y-39216857D01*
X43598619Y-38835904D02*
X43551000Y-38788285D01*
X43503380Y-38693047D01*
X43503380Y-38454952D01*
X43551000Y-38359714D01*
X43598619Y-38312095D01*
X43693857Y-38264476D01*
X43789095Y-38264476D01*
X43931952Y-38312095D01*
X44503380Y-38883523D01*
X44503380Y-38264476D01*
X44503380Y-37312095D02*
X44503380Y-37883523D01*
X44503380Y-37597809D02*
X43503380Y-37597809D01*
X43646238Y-37693047D01*
X43741476Y-37788285D01*
X43789095Y-37883523D01*
%TO.C,C20*%
X39648142Y-35804357D02*
X39695761Y-35851976D01*
X39743380Y-35994833D01*
X39743380Y-36090071D01*
X39695761Y-36232928D01*
X39600523Y-36328166D01*
X39505285Y-36375785D01*
X39314809Y-36423404D01*
X39171952Y-36423404D01*
X38981476Y-36375785D01*
X38886238Y-36328166D01*
X38791000Y-36232928D01*
X38743380Y-36090071D01*
X38743380Y-35994833D01*
X38791000Y-35851976D01*
X38838619Y-35804357D01*
X38838619Y-35423404D02*
X38791000Y-35375785D01*
X38743380Y-35280547D01*
X38743380Y-35042452D01*
X38791000Y-34947214D01*
X38838619Y-34899595D01*
X38933857Y-34851976D01*
X39029095Y-34851976D01*
X39171952Y-34899595D01*
X39743380Y-35471023D01*
X39743380Y-34851976D01*
X38743380Y-34232928D02*
X38743380Y-34137690D01*
X38791000Y-34042452D01*
X38838619Y-33994833D01*
X38933857Y-33947214D01*
X39124333Y-33899595D01*
X39362428Y-33899595D01*
X39552904Y-33947214D01*
X39648142Y-33994833D01*
X39695761Y-34042452D01*
X39743380Y-34137690D01*
X39743380Y-34232928D01*
X39695761Y-34328166D01*
X39648142Y-34375785D01*
X39552904Y-34423404D01*
X39362428Y-34471023D01*
X39124333Y-34471023D01*
X38933857Y-34423404D01*
X38838619Y-34375785D01*
X38791000Y-34328166D01*
X38743380Y-34232928D01*
%TO.C,C19*%
X42508142Y-39229357D02*
X42555761Y-39276976D01*
X42603380Y-39419833D01*
X42603380Y-39515071D01*
X42555761Y-39657928D01*
X42460523Y-39753166D01*
X42365285Y-39800785D01*
X42174809Y-39848404D01*
X42031952Y-39848404D01*
X41841476Y-39800785D01*
X41746238Y-39753166D01*
X41651000Y-39657928D01*
X41603380Y-39515071D01*
X41603380Y-39419833D01*
X41651000Y-39276976D01*
X41698619Y-39229357D01*
X42603380Y-38276976D02*
X42603380Y-38848404D01*
X42603380Y-38562690D02*
X41603380Y-38562690D01*
X41746238Y-38657928D01*
X41841476Y-38753166D01*
X41889095Y-38848404D01*
X42603380Y-37800785D02*
X42603380Y-37610309D01*
X42555761Y-37515071D01*
X42508142Y-37467452D01*
X42365285Y-37372214D01*
X42174809Y-37324595D01*
X41793857Y-37324595D01*
X41698619Y-37372214D01*
X41651000Y-37419833D01*
X41603380Y-37515071D01*
X41603380Y-37705547D01*
X41651000Y-37800785D01*
X41698619Y-37848404D01*
X41793857Y-37896023D01*
X42031952Y-37896023D01*
X42127190Y-37848404D01*
X42174809Y-37800785D01*
X42222428Y-37705547D01*
X42222428Y-37515071D01*
X42174809Y-37419833D01*
X42127190Y-37372214D01*
X42031952Y-37324595D01*
%TO.C,C18*%
X41548142Y-35716857D02*
X41595761Y-35764476D01*
X41643380Y-35907333D01*
X41643380Y-36002571D01*
X41595761Y-36145428D01*
X41500523Y-36240666D01*
X41405285Y-36288285D01*
X41214809Y-36335904D01*
X41071952Y-36335904D01*
X40881476Y-36288285D01*
X40786238Y-36240666D01*
X40691000Y-36145428D01*
X40643380Y-36002571D01*
X40643380Y-35907333D01*
X40691000Y-35764476D01*
X40738619Y-35716857D01*
X41643380Y-34764476D02*
X41643380Y-35335904D01*
X41643380Y-35050190D02*
X40643380Y-35050190D01*
X40786238Y-35145428D01*
X40881476Y-35240666D01*
X40929095Y-35335904D01*
X41071952Y-34193047D02*
X41024333Y-34288285D01*
X40976714Y-34335904D01*
X40881476Y-34383523D01*
X40833857Y-34383523D01*
X40738619Y-34335904D01*
X40691000Y-34288285D01*
X40643380Y-34193047D01*
X40643380Y-34002571D01*
X40691000Y-33907333D01*
X40738619Y-33859714D01*
X40833857Y-33812095D01*
X40881476Y-33812095D01*
X40976714Y-33859714D01*
X41024333Y-33907333D01*
X41071952Y-34002571D01*
X41071952Y-34193047D01*
X41119571Y-34288285D01*
X41167190Y-34335904D01*
X41262428Y-34383523D01*
X41452904Y-34383523D01*
X41548142Y-34335904D01*
X41595761Y-34288285D01*
X41643380Y-34193047D01*
X41643380Y-34002571D01*
X41595761Y-33907333D01*
X41548142Y-33859714D01*
X41452904Y-33812095D01*
X41262428Y-33812095D01*
X41167190Y-33859714D01*
X41119571Y-33907333D01*
X41071952Y-34002571D01*
%TO.C,C17*%
X44408142Y-32329357D02*
X44455761Y-32376976D01*
X44503380Y-32519833D01*
X44503380Y-32615071D01*
X44455761Y-32757928D01*
X44360523Y-32853166D01*
X44265285Y-32900785D01*
X44074809Y-32948404D01*
X43931952Y-32948404D01*
X43741476Y-32900785D01*
X43646238Y-32853166D01*
X43551000Y-32757928D01*
X43503380Y-32615071D01*
X43503380Y-32519833D01*
X43551000Y-32376976D01*
X43598619Y-32329357D01*
X44503380Y-31376976D02*
X44503380Y-31948404D01*
X44503380Y-31662690D02*
X43503380Y-31662690D01*
X43646238Y-31757928D01*
X43741476Y-31853166D01*
X43789095Y-31948404D01*
X43503380Y-31043642D02*
X43503380Y-30376976D01*
X44503380Y-30805547D01*
%TO.C,C16*%
X41490642Y-49161142D02*
X41443023Y-49208761D01*
X41300166Y-49256380D01*
X41204928Y-49256380D01*
X41062071Y-49208761D01*
X40966833Y-49113523D01*
X40919214Y-49018285D01*
X40871595Y-48827809D01*
X40871595Y-48684952D01*
X40919214Y-48494476D01*
X40966833Y-48399238D01*
X41062071Y-48304000D01*
X41204928Y-48256380D01*
X41300166Y-48256380D01*
X41443023Y-48304000D01*
X41490642Y-48351619D01*
X42443023Y-49256380D02*
X41871595Y-49256380D01*
X42157309Y-49256380D02*
X42157309Y-48256380D01*
X42062071Y-48399238D01*
X41966833Y-48494476D01*
X41871595Y-48542095D01*
X43300166Y-48256380D02*
X43109690Y-48256380D01*
X43014452Y-48304000D01*
X42966833Y-48351619D01*
X42871595Y-48494476D01*
X42823976Y-48684952D01*
X42823976Y-49065904D01*
X42871595Y-49161142D01*
X42919214Y-49208761D01*
X43014452Y-49256380D01*
X43204928Y-49256380D01*
X43300166Y-49208761D01*
X43347785Y-49161142D01*
X43395404Y-49065904D01*
X43395404Y-48827809D01*
X43347785Y-48732571D01*
X43300166Y-48684952D01*
X43204928Y-48637333D01*
X43014452Y-48637333D01*
X42919214Y-48684952D01*
X42871595Y-48732571D01*
X42823976Y-48827809D01*
%TO.C,C15*%
X42508142Y-32404357D02*
X42555761Y-32451976D01*
X42603380Y-32594833D01*
X42603380Y-32690071D01*
X42555761Y-32832928D01*
X42460523Y-32928166D01*
X42365285Y-32975785D01*
X42174809Y-33023404D01*
X42031952Y-33023404D01*
X41841476Y-32975785D01*
X41746238Y-32928166D01*
X41651000Y-32832928D01*
X41603380Y-32690071D01*
X41603380Y-32594833D01*
X41651000Y-32451976D01*
X41698619Y-32404357D01*
X42603380Y-31451976D02*
X42603380Y-32023404D01*
X42603380Y-31737690D02*
X41603380Y-31737690D01*
X41746238Y-31832928D01*
X41841476Y-31928166D01*
X41889095Y-32023404D01*
X41603380Y-30547214D02*
X41603380Y-31023404D01*
X42079571Y-31071023D01*
X42031952Y-31023404D01*
X41984333Y-30928166D01*
X41984333Y-30690071D01*
X42031952Y-30594833D01*
X42079571Y-30547214D01*
X42174809Y-30499595D01*
X42412904Y-30499595D01*
X42508142Y-30547214D01*
X42555761Y-30594833D01*
X42603380Y-30690071D01*
X42603380Y-30928166D01*
X42555761Y-31023404D01*
X42508142Y-31071023D01*
%TO.C,TP1*%
X28109095Y-65026380D02*
X28680523Y-65026380D01*
X28394809Y-66026380D02*
X28394809Y-65026380D01*
X29013857Y-66026380D02*
X29013857Y-65026380D01*
X29394809Y-65026380D01*
X29490047Y-65074000D01*
X29537666Y-65121619D01*
X29585285Y-65216857D01*
X29585285Y-65359714D01*
X29537666Y-65454952D01*
X29490047Y-65502571D01*
X29394809Y-65550190D01*
X29013857Y-65550190D01*
X30537666Y-66026380D02*
X29966238Y-66026380D01*
X30251952Y-66026380D02*
X30251952Y-65026380D01*
X30156714Y-65169238D01*
X30061476Y-65264476D01*
X29966238Y-65312095D01*
%TO.C,C11*%
X39728142Y-61431142D02*
X39680523Y-61478761D01*
X39537666Y-61526380D01*
X39442428Y-61526380D01*
X39299571Y-61478761D01*
X39204333Y-61383523D01*
X39156714Y-61288285D01*
X39109095Y-61097809D01*
X39109095Y-60954952D01*
X39156714Y-60764476D01*
X39204333Y-60669238D01*
X39299571Y-60574000D01*
X39442428Y-60526380D01*
X39537666Y-60526380D01*
X39680523Y-60574000D01*
X39728142Y-60621619D01*
X40680523Y-61526380D02*
X40109095Y-61526380D01*
X40394809Y-61526380D02*
X40394809Y-60526380D01*
X40299571Y-60669238D01*
X40204333Y-60764476D01*
X40109095Y-60812095D01*
X41632904Y-61526380D02*
X41061476Y-61526380D01*
X41347190Y-61526380D02*
X41347190Y-60526380D01*
X41251952Y-60669238D01*
X41156714Y-60764476D01*
X41061476Y-60812095D01*
%TO.C,C12*%
X44728142Y-62716857D02*
X44775761Y-62764476D01*
X44823380Y-62907333D01*
X44823380Y-63002571D01*
X44775761Y-63145428D01*
X44680523Y-63240666D01*
X44585285Y-63288285D01*
X44394809Y-63335904D01*
X44251952Y-63335904D01*
X44061476Y-63288285D01*
X43966238Y-63240666D01*
X43871000Y-63145428D01*
X43823380Y-63002571D01*
X43823380Y-62907333D01*
X43871000Y-62764476D01*
X43918619Y-62716857D01*
X44823380Y-61764476D02*
X44823380Y-62335904D01*
X44823380Y-62050190D02*
X43823380Y-62050190D01*
X43966238Y-62145428D01*
X44061476Y-62240666D01*
X44109095Y-62335904D01*
X43918619Y-61383523D02*
X43871000Y-61335904D01*
X43823380Y-61240666D01*
X43823380Y-61002571D01*
X43871000Y-60907333D01*
X43918619Y-60859714D01*
X44013857Y-60812095D01*
X44109095Y-60812095D01*
X44251952Y-60859714D01*
X44823380Y-61431142D01*
X44823380Y-60812095D01*
%TO.C,C13*%
X48228142Y-63931142D02*
X48180523Y-63978761D01*
X48037666Y-64026380D01*
X47942428Y-64026380D01*
X47799571Y-63978761D01*
X47704333Y-63883523D01*
X47656714Y-63788285D01*
X47609095Y-63597809D01*
X47609095Y-63454952D01*
X47656714Y-63264476D01*
X47704333Y-63169238D01*
X47799571Y-63074000D01*
X47942428Y-63026380D01*
X48037666Y-63026380D01*
X48180523Y-63074000D01*
X48228142Y-63121619D01*
X49180523Y-64026380D02*
X48609095Y-64026380D01*
X48894809Y-64026380D02*
X48894809Y-63026380D01*
X48799571Y-63169238D01*
X48704333Y-63264476D01*
X48609095Y-63312095D01*
X49513857Y-63026380D02*
X50132904Y-63026380D01*
X49799571Y-63407333D01*
X49942428Y-63407333D01*
X50037666Y-63454952D01*
X50085285Y-63502571D01*
X50132904Y-63597809D01*
X50132904Y-63835904D01*
X50085285Y-63931142D01*
X50037666Y-63978761D01*
X49942428Y-64026380D01*
X49656714Y-64026380D01*
X49561476Y-63978761D01*
X49513857Y-63931142D01*
%TO.C,C14*%
X51728142Y-67716857D02*
X51775761Y-67764476D01*
X51823380Y-67907333D01*
X51823380Y-68002571D01*
X51775761Y-68145428D01*
X51680523Y-68240666D01*
X51585285Y-68288285D01*
X51394809Y-68335904D01*
X51251952Y-68335904D01*
X51061476Y-68288285D01*
X50966238Y-68240666D01*
X50871000Y-68145428D01*
X50823380Y-68002571D01*
X50823380Y-67907333D01*
X50871000Y-67764476D01*
X50918619Y-67716857D01*
X51823380Y-66764476D02*
X51823380Y-67335904D01*
X51823380Y-67050190D02*
X50823380Y-67050190D01*
X50966238Y-67145428D01*
X51061476Y-67240666D01*
X51109095Y-67335904D01*
X51156714Y-65907333D02*
X51823380Y-65907333D01*
X50775761Y-66145428D02*
X51490047Y-66383523D01*
X51490047Y-65764476D01*
%TO.C,J4*%
X68037666Y-60526380D02*
X68037666Y-61240666D01*
X67990047Y-61383523D01*
X67894809Y-61478761D01*
X67751952Y-61526380D01*
X67656714Y-61526380D01*
X68942428Y-60859714D02*
X68942428Y-61526380D01*
X68704333Y-60478761D02*
X68466238Y-61193047D01*
X69085285Y-61193047D01*
%TO.C,Q2*%
X51275761Y-63621619D02*
X51180523Y-63574000D01*
X51085285Y-63478761D01*
X50942428Y-63335904D01*
X50847190Y-63288285D01*
X50751952Y-63288285D01*
X50799571Y-63526380D02*
X50704333Y-63478761D01*
X50609095Y-63383523D01*
X50561476Y-63193047D01*
X50561476Y-62859714D01*
X50609095Y-62669238D01*
X50704333Y-62574000D01*
X50799571Y-62526380D01*
X50990047Y-62526380D01*
X51085285Y-62574000D01*
X51180523Y-62669238D01*
X51228142Y-62859714D01*
X51228142Y-63193047D01*
X51180523Y-63383523D01*
X51085285Y-63478761D01*
X50990047Y-63526380D01*
X50799571Y-63526380D01*
X51609095Y-62621619D02*
X51656714Y-62574000D01*
X51751952Y-62526380D01*
X51990047Y-62526380D01*
X52085285Y-62574000D01*
X52132904Y-62621619D01*
X52180523Y-62716857D01*
X52180523Y-62812095D01*
X52132904Y-62954952D01*
X51561476Y-63526380D01*
X52180523Y-63526380D01*
%TO.C,Q3*%
X58918619Y-66669238D02*
X58871000Y-66764476D01*
X58775761Y-66859714D01*
X58632904Y-67002571D01*
X58585285Y-67097809D01*
X58585285Y-67193047D01*
X58823380Y-67145428D02*
X58775761Y-67240666D01*
X58680523Y-67335904D01*
X58490047Y-67383523D01*
X58156714Y-67383523D01*
X57966238Y-67335904D01*
X57871000Y-67240666D01*
X57823380Y-67145428D01*
X57823380Y-66954952D01*
X57871000Y-66859714D01*
X57966238Y-66764476D01*
X58156714Y-66716857D01*
X58490047Y-66716857D01*
X58680523Y-66764476D01*
X58775761Y-66859714D01*
X58823380Y-66954952D01*
X58823380Y-67145428D01*
X57823380Y-66383523D02*
X57823380Y-65764476D01*
X58204333Y-66097809D01*
X58204333Y-65954952D01*
X58251952Y-65859714D01*
X58299571Y-65812095D01*
X58394809Y-65764476D01*
X58632904Y-65764476D01*
X58728142Y-65812095D01*
X58775761Y-65859714D01*
X58823380Y-65954952D01*
X58823380Y-66240666D01*
X58775761Y-66335904D01*
X58728142Y-66383523D01*
%TO.C,R10*%
X39528142Y-58726380D02*
X39194809Y-58250190D01*
X38956714Y-58726380D02*
X38956714Y-57726380D01*
X39337666Y-57726380D01*
X39432904Y-57774000D01*
X39480523Y-57821619D01*
X39528142Y-57916857D01*
X39528142Y-58059714D01*
X39480523Y-58154952D01*
X39432904Y-58202571D01*
X39337666Y-58250190D01*
X38956714Y-58250190D01*
X40480523Y-58726380D02*
X39909095Y-58726380D01*
X40194809Y-58726380D02*
X40194809Y-57726380D01*
X40099571Y-57869238D01*
X40004333Y-57964476D01*
X39909095Y-58012095D01*
X41099571Y-57726380D02*
X41194809Y-57726380D01*
X41290047Y-57774000D01*
X41337666Y-57821619D01*
X41385285Y-57916857D01*
X41432904Y-58107333D01*
X41432904Y-58345428D01*
X41385285Y-58535904D01*
X41337666Y-58631142D01*
X41290047Y-58678761D01*
X41194809Y-58726380D01*
X41099571Y-58726380D01*
X41004333Y-58678761D01*
X40956714Y-58631142D01*
X40909095Y-58535904D01*
X40861476Y-58345428D01*
X40861476Y-58107333D01*
X40909095Y-57916857D01*
X40956714Y-57821619D01*
X41004333Y-57774000D01*
X41099571Y-57726380D01*
%TO.C,R11*%
X33228142Y-64026380D02*
X32894809Y-63550190D01*
X32656714Y-64026380D02*
X32656714Y-63026380D01*
X33037666Y-63026380D01*
X33132904Y-63074000D01*
X33180523Y-63121619D01*
X33228142Y-63216857D01*
X33228142Y-63359714D01*
X33180523Y-63454952D01*
X33132904Y-63502571D01*
X33037666Y-63550190D01*
X32656714Y-63550190D01*
X34180523Y-64026380D02*
X33609095Y-64026380D01*
X33894809Y-64026380D02*
X33894809Y-63026380D01*
X33799571Y-63169238D01*
X33704333Y-63264476D01*
X33609095Y-63312095D01*
X35132904Y-64026380D02*
X34561476Y-64026380D01*
X34847190Y-64026380D02*
X34847190Y-63026380D01*
X34751952Y-63169238D01*
X34656714Y-63264476D01*
X34561476Y-63312095D01*
%TO.C,R13*%
X42823380Y-63216857D02*
X42347190Y-63550190D01*
X42823380Y-63788285D02*
X41823380Y-63788285D01*
X41823380Y-63407333D01*
X41871000Y-63312095D01*
X41918619Y-63264476D01*
X42013857Y-63216857D01*
X42156714Y-63216857D01*
X42251952Y-63264476D01*
X42299571Y-63312095D01*
X42347190Y-63407333D01*
X42347190Y-63788285D01*
X42823380Y-62264476D02*
X42823380Y-62835904D01*
X42823380Y-62550190D02*
X41823380Y-62550190D01*
X41966238Y-62645428D01*
X42061476Y-62740666D01*
X42109095Y-62835904D01*
X41823380Y-61931142D02*
X41823380Y-61312095D01*
X42204333Y-61645428D01*
X42204333Y-61502571D01*
X42251952Y-61407333D01*
X42299571Y-61359714D01*
X42394809Y-61312095D01*
X42632904Y-61312095D01*
X42728142Y-61359714D01*
X42775761Y-61407333D01*
X42823380Y-61502571D01*
X42823380Y-61788285D01*
X42775761Y-61883523D01*
X42728142Y-61931142D01*
%TO.C,R14*%
X44723380Y-72416857D02*
X44247190Y-72750190D01*
X44723380Y-72988285D02*
X43723380Y-72988285D01*
X43723380Y-72607333D01*
X43771000Y-72512095D01*
X43818619Y-72464476D01*
X43913857Y-72416857D01*
X44056714Y-72416857D01*
X44151952Y-72464476D01*
X44199571Y-72512095D01*
X44247190Y-72607333D01*
X44247190Y-72988285D01*
X44723380Y-71464476D02*
X44723380Y-72035904D01*
X44723380Y-71750190D02*
X43723380Y-71750190D01*
X43866238Y-71845428D01*
X43961476Y-71940666D01*
X44009095Y-72035904D01*
X44056714Y-70607333D02*
X44723380Y-70607333D01*
X43675761Y-70845428D02*
X44390047Y-71083523D01*
X44390047Y-70464476D01*
%TO.C,R15*%
X50353380Y-71804357D02*
X49877190Y-72137690D01*
X50353380Y-72375785D02*
X49353380Y-72375785D01*
X49353380Y-71994833D01*
X49401000Y-71899595D01*
X49448619Y-71851976D01*
X49543857Y-71804357D01*
X49686714Y-71804357D01*
X49781952Y-71851976D01*
X49829571Y-71899595D01*
X49877190Y-71994833D01*
X49877190Y-72375785D01*
X50353380Y-70851976D02*
X50353380Y-71423404D01*
X50353380Y-71137690D02*
X49353380Y-71137690D01*
X49496238Y-71232928D01*
X49591476Y-71328166D01*
X49639095Y-71423404D01*
X49353380Y-69947214D02*
X49353380Y-70423404D01*
X49829571Y-70471023D01*
X49781952Y-70423404D01*
X49734333Y-70328166D01*
X49734333Y-70090071D01*
X49781952Y-69994833D01*
X49829571Y-69947214D01*
X49924809Y-69899595D01*
X50162904Y-69899595D01*
X50258142Y-69947214D01*
X50305761Y-69994833D01*
X50353380Y-70090071D01*
X50353380Y-70328166D01*
X50305761Y-70423404D01*
X50258142Y-70471023D01*
%TO.C,R16*%
X47823380Y-68416857D02*
X47347190Y-68750190D01*
X47823380Y-68988285D02*
X46823380Y-68988285D01*
X46823380Y-68607333D01*
X46871000Y-68512095D01*
X46918619Y-68464476D01*
X47013857Y-68416857D01*
X47156714Y-68416857D01*
X47251952Y-68464476D01*
X47299571Y-68512095D01*
X47347190Y-68607333D01*
X47347190Y-68988285D01*
X47823380Y-67464476D02*
X47823380Y-68035904D01*
X47823380Y-67750190D02*
X46823380Y-67750190D01*
X46966238Y-67845428D01*
X47061476Y-67940666D01*
X47109095Y-68035904D01*
X46823380Y-66607333D02*
X46823380Y-66797809D01*
X46871000Y-66893047D01*
X46918619Y-66940666D01*
X47061476Y-67035904D01*
X47251952Y-67083523D01*
X47632904Y-67083523D01*
X47728142Y-67035904D01*
X47775761Y-66988285D01*
X47823380Y-66893047D01*
X47823380Y-66702571D01*
X47775761Y-66607333D01*
X47728142Y-66559714D01*
X47632904Y-66512095D01*
X47394809Y-66512095D01*
X47299571Y-66559714D01*
X47251952Y-66607333D01*
X47204333Y-66702571D01*
X47204333Y-66893047D01*
X47251952Y-66988285D01*
X47299571Y-67035904D01*
X47394809Y-67083523D01*
%TO.C,R17*%
X52323380Y-71716857D02*
X51847190Y-72050190D01*
X52323380Y-72288285D02*
X51323380Y-72288285D01*
X51323380Y-71907333D01*
X51371000Y-71812095D01*
X51418619Y-71764476D01*
X51513857Y-71716857D01*
X51656714Y-71716857D01*
X51751952Y-71764476D01*
X51799571Y-71812095D01*
X51847190Y-71907333D01*
X51847190Y-72288285D01*
X52323380Y-70764476D02*
X52323380Y-71335904D01*
X52323380Y-71050190D02*
X51323380Y-71050190D01*
X51466238Y-71145428D01*
X51561476Y-71240666D01*
X51609095Y-71335904D01*
X51323380Y-70431142D02*
X51323380Y-69764476D01*
X52323380Y-70193047D01*
%TO.C,R18*%
X55253380Y-72004357D02*
X54777190Y-72337690D01*
X55253380Y-72575785D02*
X54253380Y-72575785D01*
X54253380Y-72194833D01*
X54301000Y-72099595D01*
X54348619Y-72051976D01*
X54443857Y-72004357D01*
X54586714Y-72004357D01*
X54681952Y-72051976D01*
X54729571Y-72099595D01*
X54777190Y-72194833D01*
X54777190Y-72575785D01*
X55253380Y-71051976D02*
X55253380Y-71623404D01*
X55253380Y-71337690D02*
X54253380Y-71337690D01*
X54396238Y-71432928D01*
X54491476Y-71528166D01*
X54539095Y-71623404D01*
X54681952Y-70480547D02*
X54634333Y-70575785D01*
X54586714Y-70623404D01*
X54491476Y-70671023D01*
X54443857Y-70671023D01*
X54348619Y-70623404D01*
X54301000Y-70575785D01*
X54253380Y-70480547D01*
X54253380Y-70290071D01*
X54301000Y-70194833D01*
X54348619Y-70147214D01*
X54443857Y-70099595D01*
X54491476Y-70099595D01*
X54586714Y-70147214D01*
X54634333Y-70194833D01*
X54681952Y-70290071D01*
X54681952Y-70480547D01*
X54729571Y-70575785D01*
X54777190Y-70623404D01*
X54872428Y-70671023D01*
X55062904Y-70671023D01*
X55158142Y-70623404D01*
X55205761Y-70575785D01*
X55253380Y-70480547D01*
X55253380Y-70290071D01*
X55205761Y-70194833D01*
X55158142Y-70147214D01*
X55062904Y-70099595D01*
X54872428Y-70099595D01*
X54777190Y-70147214D01*
X54729571Y-70194833D01*
X54681952Y-70290071D01*
%TO.C,R19*%
X56132962Y-60844582D02*
X55934234Y-60298345D01*
X55581005Y-60696686D02*
X55839824Y-59730760D01*
X56207796Y-59829358D01*
X56287464Y-59900003D01*
X56321136Y-59958325D01*
X56342483Y-60062642D01*
X56305508Y-60200632D01*
X56234863Y-60280300D01*
X56176541Y-60313972D01*
X56072224Y-60335319D01*
X55704252Y-60236721D01*
X57052892Y-61091077D02*
X56500934Y-60943180D01*
X56776913Y-61017128D02*
X57035732Y-60051202D01*
X56906765Y-60164542D01*
X56790123Y-60231886D01*
X56685805Y-60253233D01*
X57512856Y-61214324D02*
X57696842Y-61263623D01*
X57801160Y-61242276D01*
X57859481Y-61208604D01*
X57988448Y-61095264D01*
X58083744Y-60923603D01*
X58182341Y-60555631D01*
X58160994Y-60451313D01*
X58127322Y-60392992D01*
X58047654Y-60322346D01*
X57863668Y-60273047D01*
X57759351Y-60294394D01*
X57701030Y-60328066D01*
X57630384Y-60407734D01*
X57568760Y-60637717D01*
X57590107Y-60742034D01*
X57623779Y-60800356D01*
X57703447Y-60871001D01*
X57887433Y-60920300D01*
X57991751Y-60898953D01*
X58050072Y-60865282D01*
X58120718Y-60785613D01*
%TD*%
M02*
